<svg xmlns="http://www.w3.org/2000/svg" width="22" height="22" viewBox="0 0 22 22">
  <g id="btn_light_on" transform="translate(-1462.5 -34)">
    <circle id="Ellipse_134" data-name="Ellipse 134" cx="11" cy="11" r="11" transform="translate(1462.5 34)" fill="#2c2c30"/>
    <path id="icons8-light_on" d="M2.308,1.781a.511.511,0,0,0-.356.877l.481.481a.511.511,0,1,0,.722-.722l-.481-.481A.511.511,0,0,0,2.308,1.781Zm11.706,0a.511.511,0,0,0-.351.154l-.481.481a.511.511,0,1,0,.722.722l.481-.481a.511.511,0,0,0-.371-.876Zm-5.845.762a4.757,4.757,0,0,0-3.277,8.214,2.492,2.492,0,0,1,.695,1.277l.159.713h4.846l.159-.713a2.5,2.5,0,0,1,.695-1.277A4.757,4.757,0,0,0,8.168,2.544ZM.51,6.28A.511.511,0,1,0,.51,7.3H1.532a.511.511,0,1,0,0-1.021Zm14.295,0a.511.511,0,1,0,0,1.021h1.021a.511.511,0,1,0,0-1.021Zm-1.268,4.007a.511.511,0,0,0-.356.877l.481.481a.511.511,0,1,0,.722-.722l-.481-.481a.511.511,0,0,0-.366-.155Zm-10.752,0a.511.511,0,0,0-.351.154l-.481.481a.511.511,0,1,0,.722.722l.481-.481a.511.511,0,0,0-.371-.876Zm3.188,3.48.322,1.45a1.192,1.192,0,0,0,1.163.933H8.88a1.192,1.192,0,0,0,1.163-.933l.322-1.45Z" transform="translate(1465.332 36.419)" fill="#fff"/>
  </g>
</svg>
