<svg xmlns="http://www.w3.org/2000/svg" width="19.292" height="21.322" viewBox="0 0 19.292 21.322">
  <path id="ic_author_white" d="M16.123,4A5.077,5.077,0,1,0,21.2,9.077,5.083,5.083,0,0,0,16.123,4Zm8.892,10.154a2.269,2.269,0,0,0-1.609.665l-6.1,6.1a1.308,1.308,0,0,0-.333.568l-.818,2.864a.761.761,0,0,0,.733.971.751.751,0,0,0,.208-.03l2.866-.818a1.3,1.3,0,0,0,.566-.333l6.1-6.1a2.277,2.277,0,0,0-1.611-3.887Zm-14.73,2.031A2.287,2.287,0,0,0,8,18.469v.388a4.317,4.317,0,0,0,1.364,3.151,9.152,9.152,0,0,0,5.769,2.262,1.926,1.926,0,0,1,.043-.2l.817-2.865a2.322,2.322,0,0,1,.594-1.007L20.6,16.185Z" transform="translate(-8 -4)" fill="#fff"/>
</svg>
