<svg xmlns="http://www.w3.org/2000/svg" width="16.2" height="18" viewBox="0 0 16.2 18">
  <path id="ic_chapter_gray" d="M4.8,2A1.8,1.8,0,0,0,3,3.8V5.6A1.8,1.8,0,0,0,4.8,7.4H6.6A1.8,1.8,0,0,0,8.4,5.6V3.8A1.8,1.8,0,0,0,6.6,2Zm5.4,1.8V5.6h9V3.8ZM4.8,8.3A1.8,1.8,0,0,0,3,10.1v1.8a1.8,1.8,0,0,0,1.8,1.8H6.6a1.8,1.8,0,0,0,1.8-1.8V10.1A1.8,1.8,0,0,0,6.6,8.3Zm5.4,1.8v1.8h9V10.1ZM4.8,14.6A1.813,1.813,0,0,0,3,16.4v1.8A1.813,1.813,0,0,0,4.8,20H6.6a1.813,1.813,0,0,0,1.8-1.8V16.4a1.813,1.813,0,0,0-1.8-1.8Zm0,1.8H6.6v1.8H4.8Zm5.4,0v1.8h9V16.4Z" transform="translate(-3 -2)" fill="#838383"/>
</svg>
