<svg xmlns="http://www.w3.org/2000/svg" width="27.41" height="26.15" viewBox="0 0 27.41 26.15">
  <g id="ic_detail_star_halff" transform="translate(-238.296 0)">
    <path id="icons8-star" d="M16.063,2.446,19,11.136l9.172.106a.824.824,0,0,1,.483,1.486L21.294,18.2l2.733,8.756a.824.824,0,0,1-1.264.918l-7.482-5.306L7.8,27.878a.825.825,0,0,1-1.264-.918L9.268,18.2,1.91,12.727a.824.824,0,0,1,.483-1.486l9.172-.106L14.5,2.445A.825.825,0,0,1,16.063,2.446Z" transform="translate(236.719 -1.884)" fill="#d5d5d5"/>
    <path id="Subtraction_11" data-name="Subtraction 11" d="M1775.045,3810.149h0a.84.84,0,0,1-.672-.345.8.8,0,0,1-.117-.728l2.733-8.756-7.359-5.476a.825.825,0,0,1,.484-1.486l9.171-.106,2.935-8.69a.816.816,0,0,1,.782-.56.848.848,0,0,1,.3.053V3804.9l-.295-.209-7.482,5.3A.818.818,0,0,1,1775.045,3810.149Z" transform="translate(-1531.001 -3784)" fill="#f89335"/>
  </g>
</svg>
