<svg xmlns="http://www.w3.org/2000/svg" width="29" height="22.12" viewBox="0 0 29 22.12">
  <g id="ic_detail_tool_text_size" transform="translate(-1063 -602)">
    <path id="icons8-text" d="M14.971,3.973A2,2,0,0,0,14.686,4H6A1,1,0,0,0,5,5V8A1,1,0,0,0,6,9H7A1,1,0,0,0,8,8V7h5V23H12a1,1,0,0,0-1,1v1a1,1,0,0,0,1,1h2.676a2,2,0,0,0,.648,0H18a1,1,0,0,0,1-1V24a1,1,0,0,0-1-1H17V7h5V8a1,1,0,0,0,1,1h1a1,1,0,0,0,1-1V5a1,1,0,0,0-1-1H15.32A2,2,0,0,0,14.971,3.973Z" transform="translate(1067 598.027)"/>
    <path id="icons8-text-2" data-name="icons8-text" d="M10.932,3.973a1.19,1.19,0,0,0-.17.016H5.595A.6.6,0,0,0,5,4.584V6.369a.6.6,0,0,0,.595.595H6.19a.6.6,0,0,0,.595-.595V5.774H9.759v9.519H9.164a.6.6,0,0,0-.595.595v.595a.6.6,0,0,0,.595.595h1.592a1.19,1.19,0,0,0,.386,0h1.592a.6.6,0,0,0,.595-.595v-.595a.6.6,0,0,0-.595-.595h-.595V5.774h2.975v.595a.6.6,0,0,0,.595.595H16.3a.6.6,0,0,0,.595-.595V4.584a.6.6,0,0,0-.595-.595H11.14A1.19,1.19,0,0,0,10.932,3.973Z" transform="translate(1058 607.027)"/>
  </g>
</svg>
