<svg xmlns="http://www.w3.org/2000/svg" width="17.99" height="18" viewBox="0 0 17.99 18">
  <path id="ic_detail_source" d="M13.791.154a4.7,4.7,0,0,0-3.086,1.4L7.379,4.882c.523-.525,2.462-.164,2.933.306l2.014-2.014A2.408,2.408,0,0,1,13.9,2.43a1.831,1.831,0,0,1,1.423.547,1.856,1.856,0,0,1,.547,1.335,2.38,2.38,0,0,1-.744,1.663L11.625,9.5a2.129,2.129,0,0,1-3,.175,1.145,1.145,0,1,0-1.62,1.62,4.113,4.113,0,0,0,2.933,1.2,4.655,4.655,0,0,0,3.283-1.4l3.524-3.5a4.679,4.679,0,0,0,1.4-3.283A4.122,4.122,0,0,0,13.791.154ZM8.364,5.8a4.721,4.721,0,0,0-3.3,1.4l-3.5,3.5a4.679,4.679,0,0,0-1.4,3.283,4.122,4.122,0,0,0,4.355,4.158,4.7,4.7,0,0,0,3.086-1.4l3.327-3.327c-.525.525-2.462.164-2.933-.306L5.978,15.124a2.421,2.421,0,0,1-1.576.744,1.831,1.831,0,0,1-1.423-.547,1.86,1.86,0,0,1-.547-1.335,2.38,2.38,0,0,1,.744-1.663L6.678,8.8a2.132,2.132,0,0,1,3-.175A1.145,1.145,0,1,0,11.3,7,4.118,4.118,0,0,0,8.364,5.8Z" transform="translate(-0.156 -0.149)" fill="#838383"/>
</svg>
