<svg xmlns="http://www.w3.org/2000/svg" width="24" height="24" viewBox="0 0 24 24">
  <path id="ic_detail_tool_color" d="M15,3a12,12,0,0,0,0,24h1a3,3,0,0,0,3-3V21a2,2,0,0,1,2-2h4a2,2,0,0,0,2-2V15A12,12,0,0,0,15,3Zm0,2a2,2,0,1,1-2,2A2,2,0,0,1,15,5ZM7,17a2,2,0,1,1,2-2A2,2,0,0,1,7,17Zm7.5,8A2.5,2.5,0,1,1,17,22.5,2.5,2.5,0,0,1,14.5,25ZM23,17a2,2,0,1,1,2-2A2,2,0,0,1,23,17Zm-.929-6.243a2,2,0,1,1,0-2.828A2,2,0,0,1,22.071,10.757Zm-14.142,0a2,2,0,1,1,2.828,0A2,2,0,0,1,7.929,10.757Z" transform="translate(-3 -3)"/>
</svg>
