<svg xmlns="http://www.w3.org/2000/svg" width="35.496" height="25.815" viewBox="0 0 35.496 25.815">
  <path id="ic_social_youtube" d="M19.633,8.5a70.319,70.319,0,0,0-12.6.933l-.017,0a5.471,5.471,0,0,0-4.38,4.221l0,.009A44.415,44.415,0,0,0,2,21.408a37.459,37.459,0,0,0,.714,7.766,5.52,5.52,0,0,0,4.377,4.2l.03.008a72.006,72.006,0,0,0,12.588.93,72.052,72.052,0,0,0,12.591-.93l.03-.008a5.471,5.471,0,0,0,4.38-4.221l0-.017a51.564,51.564,0,0,0,.783-7.78q0-.013,0-.027a37.348,37.348,0,0,0-.788-7.834,5.519,5.519,0,0,0-4.379-4.213q-.048-.011-.1-.017A98.1,98.1,0,0,0,19.633,8.5Zm-2.986,6.859a1.745,1.745,0,0,1,.9.228l6.941,3.922a1.714,1.714,0,0,1,0,2.992l-6.941,3.922a1.744,1.744,0,0,1-2.608-1.5V17.082A1.734,1.734,0,0,1,16.647,15.359Z" transform="translate(-2 -8.5)" fill="#fff"/>
</svg>
