<svg xmlns="http://www.w3.org/2000/svg" width="19.241" height="21.391" viewBox="0 0 19.241 21.391">
  <path id="ic_sort_blue" d="M8.927,3.978a.8.8,0,0,0-.789.813V15.328a2.937,2.937,0,0,0,0,5.652v3.588a.8.8,0,1,0,1.6,0V20.979a2.937,2.937,0,0,0,0-5.652V4.792a.8.8,0,0,0-.814-.813Zm6.681,0a.8.8,0,0,0-.789.813V7.311a2.937,2.937,0,0,0,0,5.652V24.567a.8.8,0,1,0,1.6,0V12.962a2.937,2.937,0,0,0,0-5.652V4.792a.8.8,0,0,0-.814-.813Zm6.681,0a.8.8,0,0,0-.789.813V16.4a2.937,2.937,0,0,0,0,5.652v2.519a.8.8,0,1,0,1.6,0V22.048a2.937,2.937,0,0,0,0-5.652V4.792a.8.8,0,0,0-.814-.813Z" transform="translate(-6 -3.978)" fill="#3280ec"/>
</svg>
