<svg xmlns="http://www.w3.org/2000/svg" width="20.265" height="22.517" viewBox="0 0 20.265 22.517">
  <path id="ic_sort_white_chapter" d="M5.252,2A2.251,2.251,0,0,0,3,4.252V6.5A2.251,2.251,0,0,0,5.252,8.755H7.5A2.251,2.251,0,0,0,9.755,6.5V4.252A2.251,2.251,0,0,0,7.5,2Zm6.755,2.252V6.5H23.265V4.252ZM5.252,9.881A2.251,2.251,0,0,0,3,12.132v2.252a2.251,2.251,0,0,0,2.252,2.252H7.5a2.251,2.251,0,0,0,2.252-2.252V12.132A2.251,2.251,0,0,0,7.5,9.881Zm6.755,2.252v2.252H23.265V12.132ZM5.252,17.762A2.268,2.268,0,0,0,3,20.013v2.252a2.268,2.268,0,0,0,2.252,2.252H7.5a2.268,2.268,0,0,0,2.252-2.252V20.013A2.268,2.268,0,0,0,7.5,17.762Zm0,2.252H7.5v2.252H5.252Zm6.755,0v2.252H23.265V20.013Z" transform="translate(-3 -2)"/>
</svg>
