<svg xmlns="http://www.w3.org/2000/svg" width="218.842" height="71" viewBox="0 0 218.842 71">
  <g id="logo_footer" transform="translate(-431 -22.312)">
    <path id="Subtraction_8" data-name="Subtraction 8" d="M35.5,71A35.509,35.509,0,0,1,21.681,2.79,35.509,35.509,0,0,1,49.318,68.21,35.278,35.278,0,0,1,35.5,71Zm3.355-39.213c-3.284,0-7.615,0-11.994.025a10.257,10.257,0,0,0-3.175.465A12.811,12.811,0,0,0,17.9,35.99a12.935,12.935,0,0,0-2.836,6.374,12.28,12.28,0,0,0,2.68,10.022,11.692,11.692,0,0,0,8.952,4.175H39.424l5.456,0a1.946,1.946,0,1,0-.077-3.882l-5.051,0-4.332,0c-3.461,0-6.132-.007-8.663-.022a9.923,9.923,0,0,1-2.889-.438,6.706,6.706,0,0,1-3.849-3.38,7.076,7.076,0,0,1-.5-5.386,7.447,7.447,0,0,1,2.537-3.72,7.238,7.238,0,0,1,4.331-1.412c2.693-.054,5.508-.08,8.606-.08,2.115,0,4.375.012,6.908.038h.095a8.471,8.471,0,0,0,6-2.466,9.434,9.434,0,0,0,2.593-4.026h-.974l-5.376,0ZM36.483,47.64h0v0h5.771q1.923,0,3.847,0a2.129,2.129,0,1,0,.009-4.243H34.107l-2.725,0c-1.766,0-3.22,0-4.576-.01h-.022a2.017,2.017,0,0,0-2.066,1.254,2.151,2.151,0,0,0,.141,2.053,2.117,2.117,0,0,0,1.8.933c1.183.009,2.448.013,4.1.013l2.864,0ZM27.836,23.02a8.188,8.188,0,0,0-5.727,2.395c-1.976,1.826-2.585,4.234-3.23,6.784l0,.019c-.077.3-.153.606-.233.908q.145-.133.291-.265c.21-.191.426-.386.63-.587a9.061,9.061,0,0,1,6.6-2.807H26.3c2.4.032,4.983.046,8.132.046,1.985,0,4-.006,5.954-.011h.027c1.634,0,3.325-.01,4.987-.011a5.077,5.077,0,0,0,1.044-.1,9.146,9.146,0,0,0,5.77-4.118,12.916,12.916,0,0,0,.8-1.431c.131-.259.267-.526.42-.809H45.71l-6.31,0c-4.623,0-8.182,0-11.538-.015Zm2.493-8.582A7.217,7.217,0,0,0,26.2,15.758a10.573,10.573,0,0,0-4.259,6.59c-.12.463-.263.927-.4,1.376-.065.21-.128.416-.19.622l.157.1q.176-.16.355-.318c.257-.229.521-.464.77-.707a8.646,8.646,0,0,1,6.28-2.588h.056c2.5.013,5.134.019,8.052.019,3.74,0,7.52-.01,11.047-.021A6.309,6.309,0,0,0,50,20.561a9.741,9.741,0,0,0,5.688-5.009,5.323,5.323,0,0,0,.283-.693c.048-.134.1-.267.151-.412H48.768l-6.356,0c-4.7,0-8.536,0-12.063-.012Z" transform="translate(431 22.312)" fill="#fff"/>
    <path id="Path_109909" data-name="Path 109909" d="M10.466-7.969c3.015,0,5.392,1.916,5.463,4.931H5.109A5.324,5.324,0,0,1,10.466-7.969ZM19.619,2.673H15.255A4.732,4.732,0,0,1,10.643,5.4,5.377,5.377,0,0,1,5.074.226H20.009a12.475,12.475,0,0,0,.142-1.987c0-5.747-3.938-9.614-9.507-9.614C4.861-11.375.888-7.437.888-1.3S5.039,8.81,10.643,8.81C15.433,8.81,18.519,6.079,19.619,2.673ZM40.336-16.2V2.177L28.168-16.2H24.124V8.491h4.044V-9.92L40.336,8.491H44.38V-16.2ZM68.325-1.3a9.639,9.639,0,0,0-9.968-10.075A9.639,9.639,0,0,0,48.388-1.3c0,6.137,4.221,10.11,9.791,10.11A9.79,9.79,0,0,0,68.325-1.3ZM52.5-1.3c0-4.434,2.732-6.563,5.782-6.563,3.015,0,5.889,2.128,5.889,6.563s-2.98,6.6-6,6.6C55.128,5.3,52.5,3.134,52.5-1.3Zm17.524-9.755L77.442,8.491h4.825l7.45-19.546H85.424L79.89,4.873,74.356-11.055ZM101-7.969c3.015,0,5.392,1.916,5.463,4.931H95.64A5.324,5.324,0,0,1,101-7.969Zm9.152,10.642h-4.363A4.732,4.732,0,0,1,101.174,5.4,5.377,5.377,0,0,1,95.6.226H110.54a12.476,12.476,0,0,0,.142-1.987c0-5.747-3.938-9.614-9.507-9.614-5.782,0-9.755,3.938-9.755,10.075s4.151,10.11,9.755,10.11C105.963,8.81,109.05,6.079,110.149,2.673Zm4.505,5.818H118.7V-17.76h-4.044ZM138.6,3.028c-.213-7.059-11.245-4.86-11.245-8.8,0-1.313,1.135-2.2,3.3-2.2,2.2,0,3.512,1.171,3.654,2.873h4.044c-.213-3.9-3.122-6.279-7.556-6.279-4.612,0-7.521,2.519-7.521,5.64,0,7.166,11.352,4.966,11.352,8.8,0,1.348-1.242,2.341-3.583,2.341-2.235,0-3.76-1.313-3.9-2.909h-4.186c.177,3.547,3.476,6.314,8.159,6.314C135.726,8.81,138.6,6.327,138.6,3.028Z" transform="translate(511.242 62.286)" fill="#fff"/>
  </g>
</svg>
