<svg xmlns="http://www.w3.org/2000/svg" width="262" height="262" viewBox="0 0 262 262">
  <g id="btn_up" transform="translate(20449 4380)">
    <g id="Ellipse_1453" data-name="Ellipse 1453" transform="translate(-20449 -4380)" fill="#2e8cff" stroke="#707070" stroke-width="1">
      <circle cx="131" cy="131" r="131" stroke="none"/>
      <circle cx="131" cy="131" r="130.5" fill="none"/>
    </g>
    <path id="Union_111" data-name="Union 111" d="M19787.355,4291.154l-34.035-34.035a10.479,10.479,0,0,1-4.57-8.793,10.14,10.14,0,0,1,.26-2.453,10.327,10.327,0,0,1,4.307-6.392l34.039-34.04a10.517,10.517,0,0,1,14.873,14.874l-17.355,17.355h63.051a10.627,10.627,0,0,1,0,21.255h-63.047l17.352,17.355a10.518,10.518,0,1,1-14.873,14.874Zm95.988-32.229a10.9,10.9,0,0,1-10.625-10.625,4.552,4.552,0,0,1,.35-2.127,5.052,5.052,0,0,1,.709-2.127c.355-.709.709-1.063,1.064-1.768a6.207,6.207,0,0,1,1.418-1.772l1.418-1.418c.7-.354,1.063-.709,1.768-1.063s1.418-.354,2.127-.709a10.506,10.506,0,0,1,9.561,2.836,7.785,7.785,0,0,1,1.418,1.772c.354.709.709,1.059,1.064,1.768s.354,1.418.709,2.127c0,.709.354,1.418.354,2.127a4.5,4.5,0,0,1-.354,2.122,5.052,5.052,0,0,1-.709,2.127,7.818,7.818,0,0,1-1.064,1.772,6.226,6.226,0,0,1-1.418,1.768c-.355.354-1.059,1.063-1.418,1.418-.7.354-1.059.709-1.768,1.063s-1.418.354-2.127.709Z" transform="translate(-16069.703 -24070.713) rotate(90)" fill="#fff"/>
  </g>
</svg>
