<svg xmlns="http://www.w3.org/2000/svg" width="104" height="28" viewBox="0 0 104 28">
  <g id="btn_light_on" transform="translate(-1384.5 -31)">
    <rect id="Rectangle_682" data-name="Rectangle 682" width="104" height="28" rx="14" transform="translate(1384.5 31)" fill="#fff"/>
    <path id="Path_109941" data-name="Path 109941" d="M1.078,0V-9.87H5.39A3.782,3.782,0,0,1,7.8-9.191a2.272,2.272,0,0,1,.854,1.883,2.314,2.314,0,0,1-.406,1.372,2.326,2.326,0,0,1-1.12.84,2.465,2.465,0,0,1,1.309.833A2.357,2.357,0,0,1,8.9-2.758,2.474,2.474,0,0,1,8.015-.721,3.82,3.82,0,0,1,5.544,0ZM2.8-5.684H5.082q1.834,0,1.834-1.414T5.082-8.512H2.8Zm0,4.326H5.32q1.848,0,1.848-1.484T5.32-4.326H2.8ZM9.576,0l4.466-9.87h1.47L19.978,0h-1.82l-.98-2.282H12.362L11.4,0Zm5.18-7.924L12.978-3.71h3.584L14.784-7.924ZM13.93,2.856V1.232h1.708V2.856ZM12.292-10.71l1.736-2.436H15.54l1.736,2.436H16.044l-1.26-1.456-1.26,1.456ZM22.344,0V-8.372H18.956v-1.5h8.568v1.5H24.136V0ZM32.438,0V-9.87h3.668A5.366,5.366,0,0,1,39.935-8.6a4.781,4.781,0,0,1,1.351,3.654,4.809,4.809,0,0,1-1.351,3.654A5.33,5.33,0,0,1,36.106,0ZM34.23-1.484h1.764q3.416,0,3.416-3.458T35.994-8.386H34.23ZM31.22-4.34V-5.656h5.656V-4.34ZM43.106,0V-9.87h6.566v1.428H44.828v2.716h4.536V-4.3H44.828v2.87h4.844V0ZM46-10.71l-2.24-2.436H45.6L47.25-10.71ZM51.464,0V-9.87h1.344l5.306,6.888V-9.87H59.78V0H58.45L53.13-6.916V0Z" transform="translate(1392.5 49.5)" fill="#2c2c30"/>
    <g id="btn_light_on-2" data-name="btn_light_on">
      <circle id="Ellipse_134" data-name="Ellipse 134" cx="11" cy="11" r="11" transform="translate(1462.5 34)" fill="#2c2c30"/>
      <path id="icons8-light_on" d="M2.308,1.781a.511.511,0,0,0-.356.877l.481.481a.511.511,0,1,0,.722-.722l-.481-.481A.511.511,0,0,0,2.308,1.781Zm11.706,0a.511.511,0,0,0-.351.154l-.481.481a.511.511,0,1,0,.722.722l.481-.481a.511.511,0,0,0-.371-.876Zm-5.845.762a4.757,4.757,0,0,0-3.277,8.214,2.492,2.492,0,0,1,.695,1.277l.159.713h4.846l.159-.713a2.5,2.5,0,0,1,.695-1.277A4.757,4.757,0,0,0,8.168,2.544ZM.51,6.28A.511.511,0,1,0,.51,7.3H1.532a.511.511,0,1,0,0-1.021Zm14.295,0a.511.511,0,1,0,0,1.021h1.021a.511.511,0,1,0,0-1.021Zm-1.268,4.007a.511.511,0,0,0-.356.877l.481.481a.511.511,0,1,0,.722-.722l-.481-.481a.511.511,0,0,0-.366-.155Zm-10.752,0a.511.511,0,0,0-.351.154l-.481.481a.511.511,0,1,0,.722.722l.481-.481a.511.511,0,0,0-.371-.876Zm3.188,3.48.322,1.45a1.192,1.192,0,0,0,1.163.933H8.88a1.192,1.192,0,0,0,1.163-.933l.322-1.45Z" transform="translate(1465.332 36.419)" fill="#fff"/>
    </g>
  </g>
</svg>
