<svg xmlns="http://www.w3.org/2000/svg" width="104" height="28" viewBox="0 0 104 28">
  <g id="btn_light_off" transform="translate(-1386.5 -31)">
    <rect id="Rectangle_682" data-name="Rectangle 682" width="104" height="28" rx="14" transform="translate(1386.5 31)" fill="#2c2c30"/>
    <path id="Path_109942" data-name="Path 109942" d="M3.458,0V-8.372H.07v-1.5H8.638v1.5H5.25V0ZM7.616,0l4.466-9.87h1.47L18.018,0H16.2l-.98-2.282H10.4L9.436,0ZM12.8-7.924,11.018-3.71H14.6L12.824-7.924Zm-.6-4.494,1.022-1.862H14.9l-1.61,1.862Zm.63,1.778a2.366,2.366,0,0,1-1.659-.581A2.357,2.357,0,0,1,10.43-12.8l.854-.084a1.572,1.572,0,0,0,.5.924,1.531,1.531,0,0,0,1.043.336,1.526,1.526,0,0,0,1.05-.336,1.59,1.59,0,0,0,.49-.924l.854.084a2.3,2.3,0,0,1-.721,1.575A2.386,2.386,0,0,1,12.824-10.64ZM20.384,0V-8.372H17v-1.5h8.568v1.5H22.176V0ZM30.478,0V-9.87h3.668A5.366,5.366,0,0,1,37.975-8.6a4.781,4.781,0,0,1,1.351,3.654,4.809,4.809,0,0,1-1.351,3.654A5.33,5.33,0,0,1,34.146,0ZM32.27-1.484h1.764q3.416,0,3.416-3.458T34.034-8.386H32.27ZM29.26-4.34V-5.656h5.656V-4.34ZM41.146,0V-9.87h6.566v1.428H42.868v2.716H47.4V-4.3H42.868v2.87h4.844V0Zm2.9-10.71L41.8-13.146h1.834L45.29-10.71ZM49.5,0V-9.87h1.344l5.306,6.888V-9.87H57.82V0H56.49L51.17-6.916V0Z" transform="translate(1395.5 51)" fill="#fff"/>
    <g id="btn_light_off-2" data-name="btn_light_off" transform="translate(1464.395 34)">
      <circle id="Ellipse_134" data-name="Ellipse 134" cx="11" cy="11" r="11" transform="translate(0.105)" fill="#fff"/>
      <path id="icons8-light" d="M10.814,15.355H17.3c.167-.2.369-.414.587-.642a6.38,6.38,0,0,0,2.227-4.657A6.056,6.056,0,1,0,8,10.056a6.38,6.38,0,0,0,2.227,4.657C10.445,14.94,10.648,15.153,10.814,15.355Zm.491,1.135c.156.717.3,1.316.3,1.316a1.693,1.693,0,0,0,1.663,1.334h1.585a1.691,1.691,0,0,0,1.661-1.328s.14-.6.3-1.321Z" transform="translate(-3.055 -0.57)" fill="#2c2c30"/>
    </g>
  </g>
</svg>
