<svg xmlns="http://www.w3.org/2000/svg" width="22" height="22" viewBox="0 0 22 22">
  <g id="btn_light_off" transform="translate(-1462.5 -34)">
    <circle id="Ellipse_134" data-name="Ellipse 134" cx="11" cy="11" r="11" transform="translate(1462.5 34)" fill="#fff"/>
    <path id="icons8-light" d="M10.814,15.355H17.3c.167-.2.369-.414.587-.642a6.38,6.38,0,0,0,2.227-4.657A6.056,6.056,0,1,0,8,10.056a6.38,6.38,0,0,0,2.227,4.657C10.445,14.94,10.648,15.153,10.814,15.355Zm.491,1.135c.156.717.3,1.316.3,1.316a1.693,1.693,0,0,0,1.663,1.334h1.585a1.691,1.691,0,0,0,1.661-1.328s.14-.6.3-1.321Z" transform="translate(1459.445 33.43)" fill="#101010"/>
  </g>
</svg>
