<svg xmlns="http://www.w3.org/2000/svg" width="23.969" height="23.969" viewBox="0 0 23.969 23.969">
  <path id="ic_detail_tool_report" d="M4.4,4A2.389,2.389,0,0,0,2.028,6.116l11.956,7.472L25.941,6.116A2.389,2.389,0,0,0,23.572,4ZM2,8.5V20.778a2.4,2.4,0,0,0,2.4,2.4H21.175V17.183a3.6,3.6,0,0,1,3.6-3.6h1.2V8.5l-11.35,7.092a1.194,1.194,0,0,1-1.269,0Zm22.77,7.488a1.2,1.2,0,0,0-1.2,1.2v5.992a1.2,1.2,0,1,0,2.4,0V17.183A1.2,1.2,0,0,0,24.77,15.984Zm0,9.587a1.2,1.2,0,1,0,1.2,1.2A1.2,1.2,0,0,0,24.77,25.572Z" transform="translate(-2 -4)" fill="#fff"/>
</svg>
