<svg xmlns="http://www.w3.org/2000/svg" width="16.286" height="18" viewBox="0 0 16.286 18">
  <path id="ic_detail_author" d="M14.857,4a4.286,4.286,0,1,0,4.286,4.286A4.291,4.291,0,0,0,14.857,4Zm7.506,8.572a1.916,1.916,0,0,0-1.359.562l-5.151,5.15a1.1,1.1,0,0,0-.281.48l-.691,2.418A.643.643,0,0,0,15.5,22a.634.634,0,0,0,.176-.025l2.419-.691A1.1,1.1,0,0,0,18.574,21l5.15-5.15a1.922,1.922,0,0,0-1.36-3.281ZM9.929,14.286A1.931,1.931,0,0,0,8,16.215v.327A3.644,3.644,0,0,0,9.152,19.2a7.726,7.726,0,0,0,4.87,1.909,1.627,1.627,0,0,1,.036-.167l.69-2.418a1.96,1.96,0,0,1,.5-.85l3.391-3.39Z" transform="translate(-8 -4)" fill="#838383"/>
</svg>
