<svg xmlns="http://www.w3.org/2000/svg" width="23.939" height="24.675" viewBox="0 0 23.939 24.675">
  <path id="ic_detail_tool_chat" d="M13.97,2C7.37,2,2,6.833,2,12.773c0,6.295,6.033,11.381,13.167,10.716v2.45c.024-.008,0,1.2,1.2.54l.646-.414c1.355-.869,8.148-5.54,8.861-12.149a9.77,9.77,0,0,0,.068-1.143C25.939,6.833,20.57,2,13.97,2ZM9.78,13.97h-1.2a.6.6,0,0,1-.6-.6v-1.2a.6.6,0,0,1,.6-.6h1.2a.6.6,0,0,1,.6.6v1.2A.6.6,0,0,1,9.78,13.97Zm4.788,0h-1.2a.6.6,0,0,1-.6-.6v-1.2a.6.6,0,0,1,.6-.6h1.2a.6.6,0,0,1,.6.6v1.2A.6.6,0,0,1,14.568,13.97Zm4.788,0h-1.2a.6.6,0,0,1-.6-.6v-1.2a.6.6,0,0,1,.6-.6h1.2a.6.6,0,0,1,.6.6v1.2A.6.6,0,0,1,19.356,13.97Z" transform="translate(-2 -2)" fill="#fff"/>
</svg>
