<svg xmlns="http://www.w3.org/2000/svg" width="26.494" height="22.054" viewBox="0 0 26.494 22.054">
  <g id="ic_detail_tool_text_spacing" transform="translate(-1060.846 -751.081)">
    <g id="ic_detail_tool_text_spacing-2" data-name="ic_detail_tool_text_spacing">
      <path id="icons8-text" d="M14.971,3.973A2,2,0,0,0,14.686,4H6A1,1,0,0,0,5,5V8A1,1,0,0,0,6,9H7A1,1,0,0,0,8,8V7h5V23H12a1,1,0,0,0-1,1v1a1,1,0,0,0,1,1h2.676a2,2,0,0,0,.648,0H18a1,1,0,0,0,1-1V24a1,1,0,0,0-1-1H17V7h5V8a1,1,0,0,0,1,1h1a1,1,0,0,0,1-1V5a1,1,0,0,0-1-1H15.32A2,2,0,0,0,14.971,3.973Z" transform="translate(1055.846 747.108)" fill="#c4c4c4"/>
      <path id="icons8-text_width" d="M7.57,22,5,24.57l2.57,2.57V25.427H19.565V27.14l2.57-2.57L19.565,22v1.713H7.57Z" transform="translate(1109.34 751) rotate(90)" fill="#c4c4c4"/>
    </g>
  </g>
</svg>
