<svg xmlns="http://www.w3.org/2000/svg" width="23.94" height="26.615" viewBox="0 0 23.94 26.615">
  <path id="ic_detail_tool_settings_active" d="M9.642,3.978A1,1,0,0,0,8.66,4.99V18.1a3.654,3.654,0,0,0,0,7.032V29.6a1,1,0,1,0,2,0V25.131a3.654,3.654,0,0,0,0-7.032V4.99A1,1,0,0,0,9.642,3.978Zm8.313,0a1,1,0,0,0-.982,1.012V8.124a3.654,3.654,0,0,0,0,7.032V29.6a1,1,0,1,0,2,0V15.156a3.654,3.654,0,0,0,0-7.032V4.99a1,1,0,0,0-1.013-1.012Zm8.313,0a1,1,0,0,0-.982,1.012V19.429a3.654,3.654,0,0,0,0,7.032V29.6a1,1,0,1,0,2,0V26.461a3.654,3.654,0,0,0,0-7.032V4.99a1,1,0,0,0-1.013-1.012Z" transform="translate(-6 -3.978)" fill="#fff"/>
</svg>
