<svg xmlns="http://www.w3.org/2000/svg" width="20" height="20" viewBox="0 0 20 20">
  <path id="ic_header_category" d="M4.909,4A.909.909,0,0,0,4,4.909V6.727h9.091V4.909A.909.909,0,0,0,12.182,4ZM15.818,4a.909.909,0,0,0-.909.909V6.727H24V4.909A.909.909,0,0,0,23.091,4ZM4,8.545V23.091A.909.909,0,0,0,4.909,24h7.273a.909.909,0,0,0,.909-.909V8.545Zm10.909,0V23.091a.909.909,0,0,0,.909.909h7.273A.909.909,0,0,0,24,23.091V8.545ZM8.545,10.051a.276.276,0,0,1,.266.19l.639,1.895,2,.023a.28.28,0,0,1,.163.5l-1.6,1.195.595,1.907a.28.28,0,0,1-.428.313L8.545,14.922,6.914,16.077a.279.279,0,0,1-.428-.313l.595-1.907-1.6-1.195a.28.28,0,0,1,.165-.5l2-.023.639-1.895A.274.274,0,0,1,8.545,10.051Zm10.909,0a.276.276,0,0,1,.266.19l.639,1.895,2,.023a.28.28,0,0,1,.163.5l-1.6,1.195.595,1.907a.28.28,0,0,1-.428.313l-1.632-1.156-1.632,1.156a.279.279,0,0,1-.428-.313l.595-1.907-1.6-1.195a.28.28,0,0,1,.165-.5l2-.023.639-1.895A.274.274,0,0,1,19.455,10.051Zm-12.727,9.4h3.636a.909.909,0,1,1,0,1.818H6.727a.909.909,0,1,1,0-1.818Zm10.909,0h3.636a.909.909,0,0,1,0,1.818H17.636a.909.909,0,1,1,0-1.818Z" transform="translate(-4 -4)" fill="#fff"/>
</svg>
