<svg xmlns="http://www.w3.org/2000/svg" width="20.282" height="21.164" viewBox="0 0 20.282 21.164">
  <path id="ic_header_list" d="M6.646,3A2.645,2.645,0,0,0,4,5.646V17.109a.882.882,0,0,0,.26.625,2.546,2.546,0,0,0,2.386,2.02H8.409V17.991H6.646a.868.868,0,0,1-.882-.882.856.856,0,0,1,.617-.83l2.029.169V9.173a3.528,3.528,0,0,1,3.527-3.527h6.173V4.764A1.763,1.763,0,0,0,16.346,3Zm6.173,4.409a2.645,2.645,0,0,0-2.646,2.646V21.519a.882.882,0,0,0,.26.625,2.546,2.546,0,0,0,2.386,2.02H23.4a.882.882,0,1,0,0-1.764H12.818a.882.882,0,1,1,0-1.764h9.7a1.763,1.763,0,0,0,1.764-1.764v-9.7a1.763,1.763,0,0,0-1.764-1.764Zm1.764,3.527h5.291a.882.882,0,1,1,0,1.764H14.582a.882.882,0,1,1,0-1.764Z" transform="translate(-4 -3)" fill="#fff"/>
</svg>
