<svg id="ic_ranking_gold" xmlns="http://www.w3.org/2000/svg" width="32.33" height="43.288" viewBox="0 0 32.33 43.288">
  <path id="Path_109892" data-name="Path 109892" d="M4.494,16.938V36.665a.193.193,0,0,0,.32.116l8.9-7.795,8.9,7.795a.194.194,0,0,0,.322-.116V16.938Z" transform="translate(1.714 6.459)" fill="#ff2d55" fill-rule="evenodd"/>
  <path id="Path_109893" data-name="Path 109893" d="M32.131,15.27a1.881,1.881,0,0,0-.213-2.015l-1.108-1.388a1.879,1.879,0,0,1-.409-1.258l.08-1.775A1.879,1.879,0,0,0,29.47,7.079l-1.577-.818a1.881,1.881,0,0,1-.885-.983l-.649-1.653A1.88,1.88,0,0,0,24.72,2.433l-1.774-.1a1.879,1.879,0,0,1-1.209-.539L20.471.542A1.879,1.879,0,0,0,18.489.12L16.827.746a1.881,1.881,0,0,1-1.323,0L13.841.12a1.879,1.879,0,0,0-1.982.421L10.593,1.789a1.882,1.882,0,0,1-1.209.539l-1.774.1a1.882,1.882,0,0,0-1.64,1.192L5.324,5.277a1.879,1.879,0,0,1-.885.983l-1.577.818A1.881,1.881,0,0,0,1.847,8.832l.081,1.775a1.878,1.878,0,0,1-.409,1.258L.41,13.255A1.881,1.881,0,0,0,.2,15.272l.8,1.588a1.876,1.876,0,0,1,.138,1.315l-.448,1.72a1.881,1.881,0,0,0,.626,1.927l1.373,1.127A1.894,1.894,0,0,1,3.347,24.1l.29,1.753a1.877,1.877,0,0,0,1.354,1.506l1.713.472a1.873,1.873,0,0,1,1.072.778l.978,1.483a1.879,1.879,0,0,0,1.851.823l1.757-.265a1.874,1.874,0,0,1,1.294.276l1.5.956a1.88,1.88,0,0,0,2.026,0l1.5-.957a1.887,1.887,0,0,1,1.294-.275l1.757.265a1.881,1.881,0,0,0,1.851-.823l.978-1.483a1.87,1.87,0,0,1,1.07-.778l1.713-.472a1.879,1.879,0,0,0,1.356-1.506l.29-1.753a1.879,1.879,0,0,1,.662-1.146l1.373-1.127a1.879,1.879,0,0,0,.626-1.927l-.448-1.72a1.879,1.879,0,0,1,.138-1.316l.8-1.588Z" transform="translate(0 0)" fill="#ffc400"/>
</svg>
