<svg xmlns="http://www.w3.org/2000/svg" width="25.043" height="24" viewBox="0 0 25.043 24">
  <path id="ic_sort_white_name" d="M13.8,4a1.477,1.477,0,0,0-1.078.332,1.5,1.5,0,0,0-.332,1.092v8.629a1.532,1.532,0,0,0,.324,1.084,1.453,1.453,0,0,0,1.084.34h3.51a12.352,12.352,0,0,0,1.588-.09,4.707,4.707,0,0,0,1.207-.31,2.952,2.952,0,0,0,1.331-1.139,3.153,3.153,0,0,0,.493-1.734,2.8,2.8,0,0,0-2.262-2.8,2.637,2.637,0,0,0,1.722-2.521,2.756,2.756,0,0,0-.163-.952,2.713,2.713,0,0,0-.479-.821,2.825,2.825,0,0,0-.719-.615,3.036,3.036,0,0,0-1.08-.391A8.711,8.711,0,0,0,17.519,4Zm.915,1.747H16.6a4.721,4.721,0,0,1,1.887.285,1.145,1.145,0,0,1,.62,1.156,1.411,1.411,0,0,1-.2.736,1.282,1.282,0,0,1-.726.626,4.28,4.28,0,0,1-1.343.165h-2.13Zm0,4.635h2.419a3.432,3.432,0,0,1,1.826.391,1.383,1.383,0,0,1,.609,1.26q0,1.7-2.358,1.7h-2.5ZM8.1,12.348a1.565,1.565,0,0,0-.776.177,1.46,1.46,0,0,0-.507.465,3.818,3.818,0,0,0-.363.724c-.113.29-.211.539-.291.746L3.326,21.668c-.116.288-.2.513-.251.675A1.547,1.547,0,0,0,3,22.811a.955.955,0,0,0,.326.705,1.051,1.051,0,0,0,.748.31.842.842,0,0,0,.719-.291,5.011,5.011,0,0,0,.53-1.125l.53-1.423h4.514l.53,1.392c.071.172.155.371.253.6a2.363,2.363,0,0,0,.277.5.92.92,0,0,0,.318.257,1,1,0,0,0,.454.1,1.064,1.064,0,0,0,.776-.322A.984.984,0,0,0,13.3,22.8a3.584,3.584,0,0,0-.34-1.188l-2.9-7.162q-.205-.538-.338-.86a3.248,3.248,0,0,0-.324-.6,1.5,1.5,0,0,0-.507-.457A1.573,1.573,0,0,0,8.1,12.348Zm-.014,2.37L9.762,19.3H6.444Zm15.351,1.8a5.521,5.521,0,0,0-2.081.393,4.852,4.852,0,0,0-1.7,1.147,5.134,5.134,0,0,0-1.117,1.814,6.913,6.913,0,0,0-.391,2.4,7.551,7.551,0,0,0,.155,1.561,6.1,6.1,0,0,0,.467,1.38,5.47,5.47,0,0,0,.748,1.17,4.4,4.4,0,0,0,1.08.929,4.47,4.47,0,0,0,1.306.518A7.061,7.061,0,0,0,23.5,28a5.148,5.148,0,0,0,2.03-.371,4.19,4.19,0,0,0,1.431-.966,4.142,4.142,0,0,0,.821-1.211,2.955,2.955,0,0,0,.261-1.147.936.936,0,0,0-.285-.7.952.952,0,0,0-.689-.279.8.8,0,0,0-.683.275,2.421,2.421,0,0,0-.355.717,2.9,2.9,0,0,1-1.011,1.41,2.744,2.744,0,0,1-1.641.481,2.838,2.838,0,0,1-1.559-.422A2.718,2.718,0,0,1,20.792,24.5a5.557,5.557,0,0,1-.365-2.154,4.762,4.762,0,0,1,.821-2.99,2.655,2.655,0,0,1,2.207-1.054,2.528,2.528,0,0,1,1.465.41,3.394,3.394,0,0,1,1.033,1.233,2.87,2.87,0,0,0,.481.705.9.9,0,0,0,.646.2.867.867,0,0,0,.66-.3.972.972,0,0,0,.271-.681,2.623,2.623,0,0,0-.56-1.5A4.342,4.342,0,0,0,25.84,17.06,5.21,5.21,0,0,0,23.44,16.522Z" transform="translate(-3 -4)" fill="#fff"/>
</svg>
