<svg xmlns="http://www.w3.org/2000/svg" width="30.866" height="30.866" viewBox="0 0 30.866 30.866">
  <path id="ic_social_twitter" d="M27.007,3H9.859A6.859,6.859,0,0,0,3,9.859V27.007a6.859,6.859,0,0,0,6.859,6.859H27.007a6.859,6.859,0,0,0,6.859-6.859V9.859A6.859,6.859,0,0,0,27.007,3Zm.086,11.17v.588A11.98,11.98,0,0,1,15.04,26.812,12.344,12.344,0,0,1,8.573,24.9H9.6a9.507,9.507,0,0,0,5.292-1.765A4.286,4.286,0,0,1,10.926,20.2a6.421,6.421,0,0,1,.736.147,3.229,3.229,0,0,0,1.176-.147,4.247,4.247,0,0,1-3.38-4.115,7.334,7.334,0,0,0,1.91.588A4.816,4.816,0,0,1,9.458,13a3.375,3.375,0,0,1,.588-2.058,11.93,11.93,0,0,0,8.672,4.409c0-.293-.147-.588-.147-1.029a4.266,4.266,0,0,1,4.263-4.263,4,4,0,0,1,3.087,1.322,7.135,7.135,0,0,0,2.646-1.029,4.3,4.3,0,0,1-1.91,2.351,8.04,8.04,0,0,0,2.5-.736A9.926,9.926,0,0,1,27.093,14.17Z" transform="translate(-3 -3)" fill="#fff"/>
</svg>
