<svg xmlns="http://www.w3.org/2000/svg" width="30.866" height="30.866" viewBox="0 0 30.866 30.866">
  <path id="ic_social_instagram" d="M11.574,3A8.575,8.575,0,0,0,3,11.574V25.292a8.575,8.575,0,0,0,8.574,8.574H25.292a8.575,8.575,0,0,0,8.574-8.574V11.574A8.575,8.575,0,0,0,25.292,3ZM28.722,6.43a1.715,1.715,0,1,1-1.715,1.715A1.715,1.715,0,0,1,28.722,6.43ZM18.433,9.859a8.574,8.574,0,1,1-8.574,8.574A8.575,8.575,0,0,1,18.433,9.859Zm0,3.43a5.144,5.144,0,1,0,5.144,5.144A5.144,5.144,0,0,0,18.433,13.289Z" transform="translate(-3 -3)" fill="#fff"/>
</svg>
