<svg xmlns="http://www.w3.org/2000/svg" width="30.866" height="30.866" viewBox="0 0 30.866 30.866">
  <path id="ic_social_facebook" d="M27.007,3H9.859A6.859,6.859,0,0,0,3,9.859V27.007a6.859,6.859,0,0,0,6.859,6.859H19.5V21.93H15.48V17.257H19.5V13.819c0-3.985,2.437-6.158,5.993-6.158a34.327,34.327,0,0,1,3.587.18v4.167H26.63c-1.938,0-2.315.916-2.315,2.267V17.25h4.63l-.6,4.673H24.287V33.866h2.72a6.859,6.859,0,0,0,6.859-6.859V9.859A6.859,6.859,0,0,0,27.007,3Z" transform="translate(-3 -3)" fill="#fff"/>
</svg>
