<svg xmlns="http://www.w3.org/2000/svg" width="153.056" height="48.001" viewBox="0 0 153.056 48.001">
  <g id="logo_header" transform="translate(-431 -22)">
    <path id="Subtraction_8" data-name="Subtraction 8" d="M166,50a24.007,24.007,0,0,1-9.342-46.115,24.006,24.006,0,0,1,18.684,44.228A23.85,23.85,0,0,1,166,50Zm2.268-26.51c-2.22,0-5.148,0-8.109.017a6.934,6.934,0,0,0-2.146.314,8.163,8.163,0,0,0-5.83,6.819,8.3,8.3,0,0,0,1.812,6.776,7.9,7.9,0,0,0,6.052,2.823h8.606l3.688,0a1.316,1.316,0,1,0-.052-2.624l-3.415,0-2.928,0c-2.34,0-4.146,0-5.857-.015a6.709,6.709,0,0,1-1.953-.3,4.533,4.533,0,0,1-2.6-2.285,4.784,4.784,0,0,1-.341-3.641,5.035,5.035,0,0,1,1.715-2.515,4.893,4.893,0,0,1,2.928-.954c1.821-.037,3.724-.054,5.818-.054,1.43,0,2.958.008,4.67.026h.064a5.727,5.727,0,0,0,4.054-1.667,6.378,6.378,0,0,0,1.753-2.722h-7.929Zm-1.6,10.717h0v0h3.9q1.3,0,2.6,0a1.439,1.439,0,1,0,.006-2.868h-9.958c-1.194,0-2.177,0-3.094-.007h-.015a1.364,1.364,0,0,0-1.4.848,1.454,1.454,0,0,0,.1,1.388,1.431,1.431,0,0,0,1.215.631c.8.006,1.655.009,2.773.009l1.936,0Zm-5.845-16.645a5.536,5.536,0,0,0-3.872,1.619c-1.336,1.234-1.748,2.863-2.184,4.587l0,.013c-.052.2-.1.41-.157.614l.2-.179c.142-.129.288-.261.426-.4a6.125,6.125,0,0,1,4.465-1.9h.092c1.622.021,3.369.031,5.5.031,1.342,0,2.706,0,4.025-.008h.018c1.1,0,2.248-.006,3.371-.007a3.432,3.432,0,0,0,.706-.069,6.183,6.183,0,0,0,3.9-2.784,8.732,8.732,0,0,0,.542-.968c.089-.175.181-.356.284-.547h-9.49c-3.126,0-5.531,0-7.8-.01Zm1.685-5.8a4.879,4.879,0,0,0-2.79.893,7.148,7.148,0,0,0-2.879,4.455c-.081.313-.178.627-.271.93-.044.142-.087.281-.128.421l.106.065.24-.215c.174-.155.352-.314.52-.478a5.845,5.845,0,0,1,4.246-1.75h.038c1.691.008,3.471.013,5.444.013,2.529,0,5.084-.007,7.469-.014a4.265,4.265,0,0,0,1.3-.179,6.585,6.585,0,0,0,3.846-3.387,3.6,3.6,0,0,0,.191-.469c.032-.09.064-.18.1-.278h-9.27c-3.18,0-5.771,0-8.155-.008Z" transform="translate(289 20)" fill="#fff"/>
    <path id="Path_109909" data-name="Path 109909" d="M7.368-11.136a3.434,3.434,0,0,1,3.7,3.336H3.744A3.6,3.6,0,0,1,7.368-11.136Zm6.192,7.2H10.608a3.2,3.2,0,0,1-3.12,1.848,3.638,3.638,0,0,1-3.768-3.5h10.1a8.44,8.44,0,0,0,.1-1.344,6.167,6.167,0,0,0-6.432-6.5c-3.912,0-6.6,2.664-6.6,6.816S3.7.216,7.488.216A6.043,6.043,0,0,0,13.56-3.936ZM27.576-16.7V-4.272L19.344-16.7H16.608V0h2.736V-12.456L27.576,0h2.736V-16.7ZM46.512-6.624a6.521,6.521,0,0,0-6.744-6.816,6.521,6.521,0,0,0-6.744,6.816A6.447,6.447,0,0,0,39.648.216,6.624,6.624,0,0,0,46.512-6.624Zm-10.7,0c0-3,1.848-4.44,3.912-4.44,2.04,0,3.984,1.44,3.984,4.44S41.688-2.16,39.648-2.16C37.584-2.16,35.808-3.624,35.808-6.624Zm11.856-6.6L52.68,0h3.264l5.04-13.224h-2.9L54.336-2.448,50.592-13.224Zm20.952,2.088a3.434,3.434,0,0,1,3.7,3.336h-7.32A3.6,3.6,0,0,1,68.616-11.136Zm6.192,7.2H71.856a3.2,3.2,0,0,1-3.12,1.848,3.638,3.638,0,0,1-3.768-3.5h10.1a8.44,8.44,0,0,0,.1-1.344,6.167,6.167,0,0,0-6.432-6.5c-3.912,0-6.6,2.664-6.6,6.816s2.808,6.84,6.6,6.84A6.043,6.043,0,0,0,74.808-3.936ZM77.856,0h2.736V-17.76H77.856Zm16.2-3.7c-.144-4.776-7.608-3.288-7.608-5.952,0-.888.768-1.488,2.232-1.488a2.187,2.187,0,0,1,2.472,1.944h2.736c-.144-2.64-2.112-4.248-5.112-4.248-3.12,0-5.088,1.7-5.088,3.816,0,4.848,7.68,3.36,7.68,5.952,0,.912-.84,1.584-2.424,1.584A2.413,2.413,0,0,1,86.3-4.056H83.472c.12,2.4,2.352,4.272,5.52,4.272C92.112.216,94.056-1.464,94.056-3.7Z" transform="translate(490 55)" fill="#fff"/>
  </g>
</svg>
